<svg width="1920" height="1080" viewBox="0 0 1920 1080" fill="none" xmlns="http://www.w3.org/2000/svg">
<g clip-path="url(#clip0_107_1509)">
<circle opacity="0.06" cx="129" cy="951" r="129" transform="rotate(-90 129 951)" fill="#F6F7F9"/>
<path opacity="0.06" d="M258 822L258 1080L516 1080C516 937.511 400.49 822 258 822Z" fill="#F6F7F9"/>
<circle opacity="0.06" cx="1533" cy="128.998" r="129" transform="rotate(-90 1533 128.998)" fill="#F6F7F9"/>
<path opacity="0.06" d="M1146 129.374C1146 57.9217 1203.76 -0.00194303 1275 -0.00193057C1346.24 -0.00191811 1404 57.9217 1404 129.374L1146 129.374Z" fill="#F6F7F9"/>
<path opacity="0.06" d="M1662 822L1920 822L1920 1080C1777.51 1080 1662 964.489 1662 822Z" fill="#F6F7F9"/>
<rect opacity="0.06" x="1662" y="257.998" width="258" height="258" transform="rotate(-90 1662 257.998)" fill="#F6F7F9"/>
</g>
<defs>
<clipPath id="clip0_107_1509">
<rect width="1920" height="1080" fill="white"/>
</clipPath>
</defs>
</svg>