<svg width="1920" height="1080" viewBox="0 0 1920 1080" fill="none" xmlns="http://www.w3.org/2000/svg">
<g clip-path="url(#clip0_107_1522)">
<circle opacity="0.06" cx="1791" cy="129" r="129" transform="rotate(90 1791 129)" fill="#F6F7F9"/>
<circle opacity="0.06" cx="129" cy="693" r="129" transform="rotate(90 129 693)" fill="#F6F7F9"/>
<path opacity="0.06" d="M1920 258.001C1920 329.453 1862.24 387.377 1791 387.377C1719.76 387.377 1662 329.453 1662 258.001L1920 258.001Z" fill="#F6F7F9"/>
<path opacity="0.06" d="M516 1080L516 822L258 822C258 964.489 373.511 1080 516 1080Z" fill="#F6F7F9"/>
<path opacity="0.06" d="M1404 0L1662 0L1662 258C1519.51 258 1404 142.489 1404 0Z" fill="#F6F7F9"/>
<rect opacity="0.06" x="258" y="822" width="258" height="258" transform="rotate(90 258 822)" fill="#F6F7F9"/>
</g>
<defs>
<clipPath id="clip0_107_1522">
<rect width="1920" height="1080" fill="white"/>
</clipPath>
</defs>
</svg>