<svg width="13" height="14" viewBox="0 0 13 14" fill="none" xmlns="http://www.w3.org/2000/svg">
<path d="M12.7156 5.23687C12.635 5.00063 12.4218 4.83375 12.1731 4.81438L8.60996 4.53125L7.06808 1.11812C6.96746 0.89375 6.74433 0.75 6.49871 0.75C6.25308 0.75 6.02996 0.89375 5.92933 1.1175L4.38745 4.53125L0.82433 4.81438C0.579955 4.83375 0.36933 4.99437 0.286205 5.225C0.20308 5.45562 0.26183 5.71375 0.437455 5.885L3.07058 8.45187L2.13933 12.4844C2.08183 12.7337 2.18246 12.9931 2.39308 13.1388C2.50058 13.2125 2.62433 13.25 2.7487 13.25C2.86933 13.25 2.99058 13.215 3.09558 13.145L6.49871 10.8762L9.90183 13.145C10.1193 13.29 10.405 13.2844 10.6175 13.13C10.8287 12.9756 10.9218 12.705 10.85 12.4537L9.70683 8.45375L12.5418 5.9025C12.7275 5.735 12.7956 5.47375 12.7156 5.23687Z" fill="#EFC55B"/>
</svg>
